<?xml version="1.0" encoding="utf-8"?>
<!-- Generator: Adobe Illustrator 12.0.0, SVG Export Plug-In . SVG Version: 6.00 Build 51448)  -->
<!DOCTYPE svg PUBLIC "-//W3C//DTD SVG 1.1//EN" "http://www.w3.org/Graphics/SVG/1.1/DTD/svg11.dtd" [
	<!ENTITY ns_svg "http://www.w3.org/2000/svg">
	<!ENTITY ns_xlink "http://www.w3.org/1999/xlink">
]>
<svg  version="1.1" id="Layer_1" xmlns="&ns_svg;" xmlns:xlink="&ns_xlink;" width="139.101" height="153.607"
	 viewBox="0 0 139.101 153.607" overflow="visible" enable-background="new 0 0 139.101 153.607" xml:space="preserve">
<g>
	<path fill-rule="evenodd" clip-rule="evenodd" d="M75.74,67.215c11.385-4.208,14.683,8.586,20.302,6.549
		c7.691-2.788,4.896-28.986,5.239-38.639c0.354-9.957,7.741-21.325,20.302-17.683c10.751,3.118,9.205,15.607,11.788,26.851
		c1.4,6.097,3.784,11.444,4.584,16.373c2.844,17.51-0.387,39.614-1.31,56.977c-0.307,5.768,0.215,12.421-0.655,16.372
		c-1.23,5.591-9.895,14.408-14.407,15.718c-6.17,1.791-17.355-0.876-22.922-0.655c-3.689,0.146-7.007,2.024-10.479,2.62
		c-10.622,1.821-24.157,2.88-34.709,0.654c-3.373-0.711-6.929-2.849-9.823-3.929c-3.23-1.205-7.158-1.818-9.824-3.274
		c-5.349-2.922-13.576-13.95-17.682-22.267c-2.406-4.874-3.461-12.993-5.239-18.992c-3.18-10.729-9.928-22.041-9.824-36.02
		c0.051-6.821,1.357-14.485,0.655-22.922C0.346,28.265-3.546,11.394,8.285,3.689c5.79-3.77,17.75-4.2,24.231-3.274
		c9.36,1.337,20.132,7.348,23.576,14.408c3.099,6.352,0.891,13.595,1.965,21.612C59.891,50.118,76.115,50.209,75.74,67.215z"/>
</g>
</svg>
