<?xml version="1.0" encoding="utf-8"?>
<!-- Generator: Adobe Illustrator 12.0.0, SVG Export Plug-In . SVG Version: 6.00 Build 51448)  -->
<!DOCTYPE svg PUBLIC "-//W3C//DTD SVG 1.1//EN" "http://www.w3.org/Graphics/SVG/1.1/DTD/svg11.dtd" [
	<!ENTITY ns_svg "http://www.w3.org/2000/svg">
	<!ENTITY ns_xlink "http://www.w3.org/1999/xlink">
]>
<svg  version="1.1" id="Layer_1" xmlns="&ns_svg;" xmlns:xlink="&ns_xlink;" width="162.837" height="172.667"
	 viewBox="0 0 162.837 172.667" overflow="visible" enable-background="new 0 0 162.837 172.667" xml:space="preserve">
<g>
	<path fill-rule="evenodd" clip-rule="evenodd" d="M16.603,121.964c-14.567-6.825-7.815-31.275,8.58-31.2
		c-3.749-8.523-4.746-18.46-11.7-28.86c-3.578-5.351-12.145-7.216-13.26-14.04c-1.077-6.587,1.732-13.189,8.58-15.6
		c0.516-15.432,24.555-36.869,46.02-28.86c4.012,1.497,4.183,5.88,7.8,8.58c4.493,3.354,11.79,3.112,13.26,8.58
		c8.018-5.483,24.892-4.732,39-10.14c8.715-3.34,43.878-21.686,47.58,0c2.57,15.057-8.782,23.387-13.26,33.54
		c-0.616,25.324,7.001,42.949,8.58,64.74c0.594,8.199-1.929,11.061-3.12,17.94c-1.504,8.683,0.607,16.303-4.681,21.06
		c-3.17,2.853-12.521,4.911-18.72,3.9c-7.968-1.3-9.782-9.061-18.72-7.801c-15.387,2.17-9.106,29.655-36.66,24.181
		c-7.514-1.493-13.301-11.281-20.28-10.92c-8.46,0.437-16.533,15.826-28.08,15.6C3.837,172.199,20.234,136.997,16.603,121.964z"/>
</g>
</svg>
