<?xml version="1.0" encoding="utf-8"?>
<!-- Generator: Adobe Illustrator 12.0.0, SVG Export Plug-In . SVG Version: 6.00 Build 51448)  -->
<!DOCTYPE svg PUBLIC "-//W3C//DTD SVG 1.1//EN" "http://www.w3.org/Graphics/SVG/1.1/DTD/svg11.dtd" [
	<!ENTITY ns_svg "http://www.w3.org/2000/svg">
	<!ENTITY ns_xlink "http://www.w3.org/1999/xlink">
]>
<svg  version="1.1" id="Layer_1" xmlns="&ns_svg;" xmlns:xlink="&ns_xlink;" width="183.25" height="201.514"
	 viewBox="0 0 183.25 201.514" overflow="visible" enable-background="new 0 0 183.25 201.514" xml:space="preserve">
<g>
	<path fill-rule="evenodd" clip-rule="evenodd" d="M48.395,18.687c8.807-6.193,23.261-5.892,36.035-8.789
		c4.93-1.118,9.415-3.457,13.184-3.516c12.581-0.198,19.261,8.807,27.246,15.82c4.692,0.874,9.493,1.64,14.063,2.637
		c-4.104-23.146,27.4-34.274,37.792-14.941c8.815,16.4,3.246,42.566,5.273,66.796c1.588,18.977,3.174,45.483-5.273,63.281
		c-3.213,6.77-8.714,11.264-10.547,17.577c-0.841,2.898-0.826,8.175-1.758,11.426c-4.002,13.967-15.714,32.109-28.124,32.52
		c-20.999,0.694-22.3-22.164-35.156-31.641c-15.609-5.717-34.314-14.736-48.34-0.879c-5.19,5.129-4.921,13.15-9.667,16.699
		c-16.852,12.6-35.541-3.435-31.64-22.852c2.248-11.192,10.066-16.656,11.425-27.245C25.375,116.353,9.84,101.39,5.329,81.089
		c-0.927-4.171-0.07-9.061-0.879-13.183C1.97,55.275-3.693,33.579,3.571,18.687c3.513-7.202,15.048-12.342,23.73-11.425
		C35.775,8.156,42.126,16.935,48.395,18.687z M109.918,90.757c-14.664-3.527-25.063,4.816-36.035,7.91
		c1.153,7.05,2.292,14.114,4.395,20.215c12.214,3.167,25.255,12.384,38.672,8.789C116.306,112.152,120.744,96.514,109.918,90.757z"
		/>
</g>
</svg>
