<?xml version="1.0" encoding="utf-8"?>
<!-- Generator: Adobe Illustrator 12.0.0, SVG Export Plug-In . SVG Version: 6.00 Build 51448)  -->
<!DOCTYPE svg PUBLIC "-//W3C//DTD SVG 1.1//EN" "http://www.w3.org/Graphics/SVG/1.1/DTD/svg11.dtd" [
	<!ENTITY ns_svg "http://www.w3.org/2000/svg">
	<!ENTITY ns_xlink "http://www.w3.org/1999/xlink">
]>
<svg  version="1.1" id="Layer_1" xmlns="&ns_svg;" xmlns:xlink="&ns_xlink;" width="162.347" height="166.62"
	 viewBox="0 0 162.347 166.62" overflow="visible" enable-background="new 0 0 162.347 166.62" xml:space="preserve">
<g>
	<path fill-rule="evenodd" clip-rule="evenodd" d="M56.273,18.415c8.551-1.717,13.72-2.485,19.939-1.534
		c12.351,1.89,19.702,16.702,34.511,13.804c10.406-2.037,13.337-20.695,26.841-25.308c15.233-5.204,26.603,6.775,24.541,24.541
		c-1.09,9.39-7.624,14.205-10.736,24.541c13.854,8.965,12.056,35.583-7.669,36.811c-1.683,3.431-2.546,7.68-4.602,10.736
		c4.23,7.485,12.415,18.586,5.368,28.375c12.983,25.904-18.272,45.548-37.578,29.909c-13.124,3.248-43.534,4.508-62.119,6.136
		c-14.458,1.267-24.874-3.648-25.308-16.105c-0.634-18.229,16.287-19.789,22.24-32.976c-4.367-5.618-7.661-12.096-16.105-15.338
		c-6.853-2.63-13.535-2.731-16.872-9.203c-7.796-15.118,1.647-32.572,12.271-39.879c-1.375-4.248-3.927-7.32-3.067-13.804
		C7.114,32.186-3.419,23.587,1.056,10.746C3.358,4.141,10.605,0.238,16.394,0.009c6.324-0.25,10.039,4.66,16.105,6.135
		c2.808,0.683,7.844-0.172,10.737,0.767C49.015,8.787,51.631,13.937,56.273,18.415z"/>
</g>
</svg>
