<?xml version="1.0" encoding="utf-8"?>
<!-- Generator: Adobe Illustrator 12.0.0, SVG Export Plug-In . SVG Version: 6.00 Build 51448)  -->
<!DOCTYPE svg PUBLIC "-//W3C//DTD SVG 1.1//EN" "http://www.w3.org/Graphics/SVG/1.1/DTD/svg11.dtd" [
	<!ENTITY ns_svg "http://www.w3.org/2000/svg">
	<!ENTITY ns_xlink "http://www.w3.org/1999/xlink">
]>
<svg  version="1.1" id="Layer_1" xmlns="&ns_svg;" xmlns:xlink="&ns_xlink;" width="449.428" height="423.661"
	 viewBox="0 0 449.428 423.661" overflow="visible" enable-background="new 0 0 449.428 423.661" xml:space="preserve">
<g id="XMLID_8_">
	<g>
		<path d="M135.232,157.861l-0.365-1.294c-6.196-48.152-14.458-114.361,13.771-155.742c8.262,9.781,11.016,27.838,15.835,40.628
			c6.197,14.295,13.77,27.086,19.278,41.381c2.754,8.276,11.016,57.933,21.344,56.428c4.82-0.752,15.147-24.828,17.212-29.343
			c6.196-13.542,11.705-27.085,15.836-40.628c4.819-13.543,17.213-68.466,35.113-52.667c33.737,30.095,8.951,92.542,31.672,127.904
			c7.573-5.267,15.836-27.085,20.655-36.114c0.688,3.762-0.688,7.523-2.065,11.286c10.327,3.009,22.721,0,33.736,0.752
			c15.147,1.504,28.918,5.267,42.688,11.286c18.59,8.276,39.934,18.057,48.884,39.124c-20.655,18.057-46.818,31.6-69.539,47.399
			c-8.95,6.771-18.59,11.286-12.393,22.571c4.131,7.523,15.835,15.8,22.721,21.819c8.262,8.275,37.179,36.113,32.359,50.409
			c-4.131,13.543-34.425,17.305-44.064,19.562c-15.836,4.515-33.048,6.019-49.572,4.515c-12.394-0.753-25.475-5.267-36.491-12.791
			c1.377,27.838,4.131,59.438,6.886,88.028c-41.999,13.543-62.654-54.171-81.244-80.504c-14.459,18.809-27.541,33.104-45.441,48.151
			c-15.147,12.038-30.983,19.563-47.507,29.343c-4.819,2.258-24.786,15.8-29.605,13.543c-13.771-5.267,4.819-82.009,6.196-95.552
			c1.99-19.555-0.489-44.684,7.312-61.974c0.317,0.339,0.633,0.685,0.95,1.031c0-0.753,0-3.01,0-3.01
			c-0.337,0.647-0.654,1.31-0.95,1.979c-17.467-18.771-31.864-25.385-56.884-29.816c-10.328-2.257-65.408-15.8-47.507-33.857
			c10.328-9.781,35.114-11.286,47.507-14.295c13.082-3.01,26.852-6.019,39.245-12.038
			C105.475,167.01,119.555,163.166,135.232,157.861z"/>
	</g>
	<g>
		<path fill="none" stroke="#000000" d="M108.442,265.383c-17.467-18.771-31.864-25.385-56.884-29.816
			c-10.328-2.257-65.408-15.8-47.507-33.857c10.328-9.781,35.114-11.286,47.507-14.295c13.082-3.01,26.852-6.019,39.245-12.038
			c14.672-8.367,28.752-12.211,44.43-17.516c1.246-0.421,2.499-0.85,3.766-1.294c1.377,0,2.754-0.752,4.819-1.505"/>
		<path fill="none" stroke="#000000" d="M108.442,265.383c0.296-0.669,0.613-1.331,0.95-1.979c0,0,0,2.257,0,3.01
			C109.076,266.067,108.759,265.722,108.442,265.383z"/>
		<path fill="none" stroke="#000000" d="M134.867,156.567c-6.196-48.152-14.458-114.361,13.771-155.742
			c8.262,9.781,11.016,27.838,15.835,40.628c6.197,14.295,13.77,27.086,19.278,41.381c2.754,8.276,11.016,57.933,21.344,56.428
			c4.82-0.752,15.147-24.828,17.212-29.343c6.196-13.542,11.705-27.085,15.836-40.628c4.819-13.543,17.213-68.466,35.113-52.667
			c33.737,30.095,8.951,92.542,31.672,127.904c7.573-5.267,15.836-27.085,20.655-36.114c0.688,3.762-0.688,7.523-2.065,11.286
			c10.327,3.009,22.721,0,33.736,0.752c15.147,1.504,28.918,5.267,42.688,11.286c18.59,8.276,39.934,18.057,48.884,39.124
			c-20.655,18.057-46.818,31.6-69.539,47.399c-8.95,6.771-18.59,11.286-12.393,22.571c4.131,7.523,15.835,15.8,22.721,21.819
			c8.262,8.275,37.179,36.113,32.359,50.409c-4.131,13.543-34.425,17.305-44.064,19.562c-15.836,4.515-33.048,6.019-49.572,4.515
			c-12.394-0.753-25.475-5.267-36.491-12.791c1.377,27.838,4.131,59.438,6.886,88.028c-41.999,13.543-62.654-54.171-81.244-80.504
			c-14.459,18.809-27.541,33.104-45.441,48.151c-15.147,12.038-30.983,19.563-47.507,29.343c-4.819,2.258-24.786,15.8-29.605,13.543
			c-13.771-5.267,4.819-82.009,6.196-95.552c1.99-19.555-0.489-44.684,7.312-61.974"/>
	</g>
</g>
</svg>
