<?xml version="1.0" encoding="utf-8"?>
<!-- Generator: Adobe Illustrator 12.0.0, SVG Export Plug-In . SVG Version: 6.00 Build 51448)  -->
<!DOCTYPE svg PUBLIC "-//W3C//DTD SVG 1.1//EN" "http://www.w3.org/Graphics/SVG/1.1/DTD/svg11.dtd" [
	<!ENTITY ns_svg "http://www.w3.org/2000/svg">
	<!ENTITY ns_xlink "http://www.w3.org/1999/xlink">
]>
<svg  version="1.1" id="Layer_1" xmlns="&ns_svg;" xmlns:xlink="&ns_xlink;" width="187.206" height="211.652"
	 viewBox="0 0 187.206 211.652" overflow="visible" enable-background="new 0 0 187.206 211.652" xml:space="preserve">
<g>
	<path fill-rule="evenodd" clip-rule="evenodd" d="M22.238,72.52c-1.91-5.822,9.35-13.797,11.041-20.508
		C5.427,26.734,20.659-11.193,57.816,3.143c4.861,1.875,9.871,10.811,16.01,12.452c9.354,2.501,27.841,29.506,32.953,38.917
		c4.767-4.639,5.348-35.515,10.63-37.138c4.974-1.527,8.312-4.733,13.342-5.336c26.423-3.17,48.153,3.42,46.251,28.462
		c-0.687,9.045-7.824,15.42-8.005,25.794c-0.128,7.409-23.148,19.873-21.718,28.218c1.779,10.37,31.537,17.611,30.612,28.707
		c-0.65,7.812-4.866,15.404-4.447,21.347c0.79,11.21,11.364,16.131,13.342,28.462c2.711,16.901-7.904,32.021-25.794,32.021
		c-6.095,0-10.12-3.955-15.12-4.447c-10.114-0.995-18.863-0.055-27.573-4.447c-6.994-3.526-16.065-9.647-24.016-15.12
		c-7.564-5.209-16.527-11.071-22.236-16.011c-5.392-4.666-8.251-12.019-14.231-15.12c-20.162-10.46-5.294-17.905-10.162-45.016
		c-0.714-3.976-47.972,9.912-47.652,3.211C0.686,93.74-0.438,84.675,8.896,77.856C12.824,74.987,17.437,74.825,22.238,72.52z"/>
	<path fill-rule="evenodd" clip-rule="evenodd" d="M94.11,154.923c9.196,18.72-0.438,29.938-7.452,43.536
		c-6.172,11.966-25.53,20.909-32.292,3.304c-1.366-3.556-4.731-18.034-5.481-23.397c-0.369-2.638-0.107-9.91,1.003-13.185
		C55.021,150.033,84.307,134.967,94.11,154.923z"/>
</g>
</svg>
