<svg xmlns="http://www.w3.org/2000/svg" width="570.629" height="462.709" viewBox="0 0 570.629 462.709" class="svg-blot svg-blot_7">
<g id="XMLID_11_">
	<g>
		<path d="M546.385,287.845c24,18,28,45,20,74c-5,19-19,67-39,77c-24,12-79-23-102-29c-43-12-88-19-132-23c-44-3-88-9-132-1
			c-31.02,5.82-76.13,24.78-75.22,62.37c-0.36,3.24-1.07,7.21-1.78,8.63c-15,22-56-30-64-42c-17-28-20-50-3-78c11-19,42-51,25-74
			c-9-12-29-12-38-25c-6-10-4-22-1-33c20-69,95-73,155-73c29,0,63,19,91,15c21-3,26-40,35-58c28-57,98-84,159-87c25-1,75-7,92,18
			c15,22-5,51-17,71c-19,32-47,64-60,99c-8,23-2,61,22,72C502.385,271.845,525.385,272.845,546.385,287.845z"/>
	</g>
	<g>
		<path fill="none" stroke="#000000" d="M86.165,448.215c0.14-1.311,0.22-2.51,0.22-3.37"/>
		<path fill="none" stroke="#000000" d="M86.165,448.215c-0.91-37.59,44.2-56.55,75.22-62.37c44-8,88-2,132,1c44,4,89,11,132,23
			c23,6,78,41,102,29c20-10,34-58,39-77c8-29,4-56-20-74c-21-15-44-16-66-26c-24-11-30-49-22-72c13-35,41-67,60-99
			c12-20,32-49,17-71c-17-25-67-19-92-18c-61,3-131,30-159,87c-9,18-14,55-35,58c-28,4-62-15-91-15c-60,0-135,4-155,73
			c-3,11-5,23,1,33c9,13,29,13,38,25c17,23-14,55-25,74c-17,28-14,50,3,78c8,12,49,64,64,42
			C85.095,455.425,85.805,451.455,86.165,448.215z"/>
		<path fill="none" stroke="#000000" d="M86.385,451.845c-0.12-1.23-0.2-2.44-0.22-3.63"/>
	</g>
</g>
</svg>