<svg xmlns="http://www.w3.org/2000/svg" width="189.126" height="205.158" viewBox="0 0 189.126 205.158" class="svg-blot svg-blot_2">
<g>
	<path fill-rule="evenodd" clip-rule="evenodd" d="M24.158,72.63c-1.91-5.822-2.581-15.525-0.89-22.236
		C-4.583,25.116,22.579-11.083,59.736,3.253c4.861,1.875,9.871,10.811,16.01,12.452c9.354,2.501,22.461-2.295,27.573,7.116
		c4.767-4.639,10.728-3.714,16.01-5.337c4.974-1.527,8.312-4.733,13.342-5.336c26.423-3.17,48.153,3.42,46.251,28.462
		c-0.687,9.045-7.824,15.42-8.005,25.794c-0.128,7.409,6.574,13.892,8.005,22.236c1.779,10.37,1.814,23.592,0.89,34.688
		c-0.65,7.812-4.866,15.405-4.447,21.347c0.79,11.21,11.364,16.131,13.342,28.462c2.711,16.901-7.904,32.021-25.794,32.021
		c-6.095,0-10.12-3.955-15.12-4.447c-10.114-0.995-18.863-0.055-27.573-4.447c-6.994-3.526-16.065-9.647-24.016-15.12
		c-7.564-5.209-16.527-11.071-22.236-16.011c-5.392-4.666-8.251-12.019-14.231-15.12c-20.162-10.46-54.726,1.316-59.593-25.794
		c-0.714-3.976,1.459-9.31,1.779-16.01c0.685-14.357-0.439-23.422,8.895-30.241C14.745,75.098,19.357,74.936,24.158,72.63z"/>
	<path fill-rule="evenodd" clip-rule="evenodd" d="M33.053,148.233c20.483-3.929,28.76,8.324,40.025,18.679
		c9.912,9.111,13.429,30.144-5.337,32.02c-3.791,0.379-18.644-0.196-24.015-0.889c-2.641-0.341-9.586-2.513-12.452-4.447
		C18.02,184.646,11.217,152.421,33.053,148.233z"/>
</g>
</svg>
