<svg  xmlns="http://www.w3.org/2000/svg" width="500" height="500" viewBox="0 0 500 500" class="svg-blot svg-blots">
<g class="svg-blot svg-blot_1">
	<path fill-rule="evenodd" clip-rule="evenodd" d="M22.238,72.52c-1.91-5.822,9.35-13.797,11.041-20.508
		C5.427,26.734,20.659-11.193,57.816,3.143c4.861,1.875,9.871,10.811,16.01,12.452c9.354,2.501,27.841,29.506,32.953,38.917
		c4.767-4.639,5.348-35.515,10.63-37.138c4.974-1.527,8.312-4.733,13.342-5.336c26.423-3.17,48.153,3.42,46.251,28.462
		c-0.687,9.045-7.824,15.42-8.005,25.794c-0.128,7.409-23.148,19.873-21.718,28.218c1.779,10.37,31.537,17.611,30.612,28.707
		c-0.65,7.812-4.866,15.404-4.447,21.347c0.79,11.21,11.364,16.131,13.342,28.462c2.711,16.901-7.904,32.021-25.794,32.021
		c-6.095,0-10.12-3.955-15.12-4.447c-10.114-0.995-18.863-0.055-27.573-4.447c-6.994-3.526-16.065-9.647-24.016-15.12
		c-7.564-5.209-16.527-11.071-22.236-16.011c-5.392-4.666-8.251-12.019-14.231-15.12c-20.162-10.46-5.294-17.905-10.162-45.016
		c-0.714-3.976-47.972,9.912-47.652,3.211C0.686,93.74-0.438,84.675,8.896,77.856C12.824,74.987,17.437,74.825,22.238,72.52z"/>
	<path fill-rule="evenodd" clip-rule="evenodd" d="M94.11,154.923c9.196,18.72-0.438,29.938-7.452,43.536
		c-6.172,11.966-25.53,20.909-32.292,3.304c-1.366-3.556-4.731-18.034-5.481-23.397c-0.369-2.638-0.107-9.91,1.003-13.185
		C55.021,150.033,84.307,134.967,94.11,154.923z"/>
</g>
<g class="svg-blot svg-blot_2">
	<path fill-rule="evenodd" clip-rule="evenodd" d="M24.158,72.63c-1.91-5.822-2.581-15.525-0.89-22.236
		C-4.583,25.116,22.579-11.083,59.736,3.253c4.861,1.875,9.871,10.811,16.01,12.452c9.354,2.501,22.461-2.295,27.573,7.116
		c4.767-4.639,10.728-3.714,16.01-5.337c4.974-1.527,8.312-4.733,13.342-5.336c26.423-3.17,48.153,3.42,46.251,28.462
		c-0.687,9.045-7.824,15.42-8.005,25.794c-0.128,7.409,6.574,13.892,8.005,22.236c1.779,10.37,1.814,23.592,0.89,34.688
		c-0.65,7.812-4.866,15.405-4.447,21.347c0.79,11.21,11.364,16.131,13.342,28.462c2.711,16.901-7.904,32.021-25.794,32.021
		c-6.095,0-10.12-3.955-15.12-4.447c-10.114-0.995-18.863-0.055-27.573-4.447c-6.994-3.526-16.065-9.647-24.016-15.12
		c-7.564-5.209-16.527-11.071-22.236-16.011c-5.392-4.666-8.251-12.019-14.231-15.12c-20.162-10.46-54.726,1.316-59.593-25.794
		c-0.714-3.976,1.459-9.31,1.779-16.01c0.685-14.357-0.439-23.422,8.895-30.241C14.745,75.098,19.357,74.936,24.158,72.63z"/>
	<path fill-rule="evenodd" clip-rule="evenodd" d="M33.053,148.233c20.483-3.929,28.76,8.324,40.025,18.679
		c9.912,9.111,13.429,30.144-5.337,32.02c-3.791,0.379-18.644-0.196-24.015-0.889c-2.641-0.341-9.586-2.513-12.452-4.447
		C18.02,184.646,11.217,152.421,33.053,148.233z"/>
</g>
<g class="svg-blot svg-blot_3">
	<path fill-rule="evenodd" clip-rule="evenodd" d="M16.603,121.964c-14.567-6.825-7.815-31.275,8.58-31.2
		c-3.749-8.523-4.746-18.46-11.7-28.86c-3.578-5.351-12.145-7.216-13.26-14.04c-1.077-6.587,1.732-13.189,8.58-15.6
		c0.516-15.432,24.555-36.869,46.02-28.86c4.012,1.497,4.183,5.88,7.8,8.58c4.493,3.354,11.79,3.112,13.26,8.58
		c8.018-5.483,24.892-4.732,39-10.14c8.715-3.34,43.878-21.686,47.58,0c2.57,15.057-8.782,23.387-13.26,33.54
		c-0.616,25.324,7.001,42.949,8.58,64.74c0.594,8.199-1.929,11.061-3.12,17.94c-1.504,8.683,0.607,16.303-4.681,21.06
		c-3.17,2.853-12.521,4.911-18.72,3.9c-7.968-1.3-9.782-9.061-18.72-7.801c-15.387,2.17-9.106,29.655-36.66,24.181
		c-7.514-1.493-13.301-11.281-20.28-10.92c-8.46,0.437-16.533,15.826-28.08,15.6C3.837,172.199,20.234,136.997,16.603,121.964z"/>
</g>
<g class="svg-blot svg-blot_4">
	<path fill-rule="evenodd" clip-rule="evenodd" d="M56.273,18.415c8.551-1.717,13.72-2.485,19.939-1.534
		c12.351,1.89,19.702,16.702,34.511,13.804c10.406-2.037,13.337-20.695,26.841-25.308c15.233-5.204,26.603,6.775,24.541,24.541
		c-1.09,9.39-7.624,14.205-10.736,24.541c13.854,8.965,12.056,35.583-7.669,36.811c-1.683,3.431-2.546,7.68-4.602,10.736
		c4.23,7.485,12.415,18.586,5.368,28.375c12.983,25.904-18.272,45.548-37.578,29.909c-13.124,3.248-43.534,4.508-62.119,6.136
		c-14.458,1.267-24.874-3.648-25.308-16.105c-0.634-18.229,16.287-19.789,22.24-32.976c-4.367-5.618-7.661-12.096-16.105-15.338
		c-6.853-2.63-13.535-2.731-16.872-9.203c-7.796-15.118,1.647-32.572,12.271-39.879c-1.375-4.248-3.927-7.32-3.067-13.804
		C7.114,32.186-3.419,23.587,1.056,10.746C3.358,4.141,10.605,0.238,16.394,0.009c6.324-0.25,10.039,4.66,16.105,6.135
		c2.808,0.683,7.844-0.172,10.737,0.767C49.015,8.787,51.631,13.937,56.273,18.415z"/>
</g>
<g class="svg-blot svg-blot_5">
	<path fill-rule="evenodd" clip-rule="evenodd" d="M75.74,67.215c11.385-4.208,14.683,8.586,20.302,6.549
		c7.691-2.788,4.896-28.986,5.239-38.639c0.354-9.957,7.741-21.325,20.302-17.683c10.751,3.118,9.205,15.607,11.788,26.851
		c1.4,6.097,3.784,11.444,4.584,16.373c2.844,17.51-0.387,39.614-1.31,56.977c-0.307,5.768,0.215,12.421-0.655,16.372
		c-1.23,5.591-9.895,14.408-14.407,15.718c-6.17,1.791-17.355-0.876-22.922-0.655c-3.689,0.146-7.007,2.024-10.479,2.62
		c-10.622,1.821-24.157,2.88-34.709,0.654c-3.373-0.711-6.929-2.849-9.823-3.929c-3.23-1.205-7.158-1.818-9.824-3.274
		c-5.349-2.922-13.576-13.95-17.682-22.267c-2.406-4.874-3.461-12.993-5.239-18.992c-3.18-10.729-9.928-22.041-9.824-36.02
		c0.051-6.821,1.357-14.485,0.655-22.922C0.346,28.265-3.546,11.394,8.285,3.689c5.79-3.77,17.75-4.2,24.231-3.274
		c9.36,1.337,20.132,7.348,23.576,14.408c3.099,6.352,0.891,13.595,1.965,21.612C59.891,50.118,76.115,50.209,75.74,67.215z"/>
</g>
<g class="svg-blot svg-blot_6">
	<path fill-rule="evenodd" clip-rule="evenodd" d="M48.395,18.687c8.807-6.193,23.261-5.892,36.035-8.789
		c4.93-1.118,9.415-3.457,13.184-3.516c12.581-0.198,19.261,8.807,27.246,15.82c4.692,0.874,9.493,1.64,14.063,2.637
		c-4.104-23.146,27.4-34.274,37.792-14.941c8.815,16.4,3.246,42.566,5.273,66.796c1.588,18.977,3.174,45.483-5.273,63.281
		c-3.213,6.77-8.714,11.264-10.547,17.577c-0.841,2.898-0.826,8.175-1.758,11.426c-4.002,13.967-15.714,32.109-28.124,32.52
		c-20.999,0.694-22.3-22.164-35.156-31.641c-15.609-5.717-34.314-14.736-48.34-0.879c-5.19,5.129-4.921,13.15-9.667,16.699
		c-16.852,12.6-35.541-3.435-31.64-22.852c2.248-11.192,10.066-16.656,11.425-27.245C25.375,116.353,9.84,101.39,5.329,81.089
		c-0.927-4.171-0.07-9.061-0.879-13.183C1.97,55.275-3.693,33.579,3.571,18.687c3.513-7.202,15.048-12.342,23.73-11.425
		C35.775,8.156,42.126,16.935,48.395,18.687z M109.918,90.757c-14.664-3.527-25.063,4.816-36.035,7.91
		c1.153,7.05,2.292,14.114,4.395,20.215c12.214,3.167,25.255,12.384,38.672,8.789C116.306,112.152,120.744,96.514,109.918,90.757z"
		/>
</g>
<g class="svg-blot svg-blot_7">
	<path d="M546.385,287.845c24,18,28,45,20,74c-5,19-19,67-39,77c-24,12-79-23-102-29c-43-12-88-19-132-23c-44-3-88-9-132-1
		c-31.02,5.82-76.13,24.78-75.22,62.37c-0.36,3.24-1.07,7.21-1.78,8.63c-15,22-56-30-64-42c-17-28-20-50-3-78c11-19,42-51,25-74
		c-9-12-29-12-38-25c-6-10-4-22-1-33c20-69,95-73,155-73c29,0,63,19,91,15c21-3,26-40,35-58c28-57,98-84,159-87c25-1,75-7,92,18
		c15,22-5,51-17,71c-19,32-47,64-60,99c-8,23-2,61,22,72C502.385,271.845,525.385,272.845,546.385,287.845z"/>
</g>
<g class="svg-blot svg-blot_8">
	<path d="M388.066,67.97c8.34,4.658,26.345,22.258,9.221,28.987c-13.172,4.658-28.095,2.063-41.267,7.761
		c-6.59,2.586-11.854,6.729-17.562,11.387c-8.783,6.213-18.442,10.871-27.22,16.561c-13.609,9.316-29.413,25.361-44.343,25.877
		c7.902,1.039,15.367,6.213,20.637,13.974c8.34,11.911,15.367,16.045,28.97,17.6c4.833,0.516,16.249-1.032,20.638,2.071
		c3.513,2.587,2.632,4.658,1.318,10.347c-2.193,9.324-6.589,18.64-7.026,28.472c0.438-5.697,2.632-16.561,7.902-17.601
		c1.756,11.903,5.27,23.29,7.901,35.2c2.194,11.903,2.639,25.361,6.146,36.225c1.757-5.689,1.757-12.419,3.076-18.116
		c2.632,15.529,12.29,30.542,18.88,44.517c5.648,12.363,12.032,25.165,18.827,36.794c-11.448,12.872-40.803,6.159-55.268,6.159
		c-13.173,0-34.247-2.587-45.219,7.252c6.583,8.276,16.242,25.361,18.437,36.225c2.193,8.8-2.194,8.284-8.777,10.871
		c-5.708,2.071-10.097,3.103-16.249,3.103c-28.095,1.039-51.363-17.593-69.799-41.405c-6.59-8.277-12.735-16.562-19.317-25.361
		c-3.951-5.174-7.465-12.935-12.735-16.561c-5.271-3.618-12.728-3.103-18.436-3.103c-11.854,0-24.151,0-36.004-0.516
		c-19.317-0.524-39.51-2.071-59.266-0.524c-9.221,1.04-26.344,1.556-33.365,8.801c-3.951,4.142-5.708,9.315-10.978,12.941
		c-3.514,2.071-7.902,3.619-11.853,5.174c-3.951-12.418,3.076-27.947,8.784-38.303c6.145-10.348,22.387-26.908,17.561-39.851
		c-3.951-10.348-15.367-18.632-21.075-28.463c-4.521-7.792-12.808-21.609-9.374-31.105c4.408-12.2,10.925-24.806,16.706-36.208
		c3.699-7.299,7.763-14.333,11.449-21.648c2.685-5.322,8.28-13.958,7-20.062c-2.592-12.34-17.176-24.923-24.906-32.793
		C11.822,92.815-3.1,79.873,1.289,62.796c1.313-5.697,6.145-15.529,10.534-13.458c3.951,1.555,10.096,16.561,13.172,20.703
		c10.534,13.458,25.9,26.392,40.83,31.05c3.951,1.04,14.047,4.142,17.561,2.071c5.27-2.071,8.339-12.418,10.534-17.592
		c6.589-19.155,13.61-37.787,23.269-54.864c4.396-7.768,19.318-32.605,28.977-30.019c14.929,3.619,6.146,27.432,3.514,37.264
		c-2.632,10.348-5.708,22.774,0,32.605c7.902,12.942,19.755,10.871,30.289,6.213c18.443-7.769,40.393-8.8,60.147-10.871
		c14.492-1.032,28.102,1.555,41.712,5.697c16.679,5.174,35.121,2.587,52.238,0.516c12.297-1.555,24.15-3.626,36.44-4.658
		C377.094,66.931,382.358,64.868,388.066,67.97z"/>
</g>
<g class="svg-blot svg-blot_9">
	<path d="M135.232,157.861l-0.365-1.294c-6.196-48.152-14.458-114.361,13.771-155.742c8.262,9.781,11.016,27.838,15.835,40.628
		c6.197,14.295,13.77,27.086,19.278,41.381c2.754,8.276,11.016,57.933,21.344,56.428c4.82-0.752,15.147-24.828,17.212-29.343
		c6.196-13.542,11.705-27.085,15.836-40.628c4.819-13.543,17.213-68.466,35.113-52.667c33.737,30.095,8.951,92.542,31.672,127.904
		c7.573-5.267,15.836-27.085,20.655-36.114c0.688,3.762-0.688,7.523-2.065,11.286c10.327,3.009,22.721,0,33.736,0.752
		c15.147,1.504,28.918,5.267,42.688,11.286c18.59,8.276,39.934,18.057,48.884,39.124c-20.655,18.057-46.818,31.6-69.539,47.399
		c-8.95,6.771-18.59,11.286-12.393,22.571c4.131,7.523,15.835,15.8,22.721,21.819c8.262,8.275,37.179,36.113,32.359,50.409
		c-4.131,13.543-34.425,17.305-44.064,19.562c-15.836,4.515-33.048,6.019-49.572,4.515c-12.394-0.753-25.475-5.267-36.491-12.791
		c1.377,27.838,4.131,59.438,6.886,88.028c-41.999,13.543-62.654-54.171-81.244-80.504c-14.459,18.809-27.541,33.104-45.441,48.151
		c-15.147,12.038-30.983,19.563-47.507,29.343c-4.819,2.258-24.786,15.8-29.605,13.543c-13.771-5.267,4.819-82.009,6.196-95.552
		c1.99-19.555-0.489-44.684,7.312-61.974c0.317,0.339,0.633,0.685,0.95,1.031c0-0.753,0-3.01,0-3.01
		c-0.337,0.647-0.654,1.31-0.95,1.979c-17.467-18.771-31.864-25.385-56.884-29.816c-10.328-2.257-65.408-15.8-47.507-33.857
		c10.328-9.781,35.114-11.286,47.507-14.295c13.082-3.01,26.852-6.019,39.245-12.038
		C105.475,167.01,119.555,163.166,135.232,157.861z"/>
</g>
</svg>