<svg xmlns="http://www.w3.org/2000/svg" width="404.923" height="412.175" viewBox="0 0 404.923 412.175" class="svg-blot svg-blot_8">
<g id="XMLID_1_">
	<g>
		<path d="M388.066,67.97c8.34,4.658,26.345,22.258,9.221,28.987c-13.172,4.658-28.095,2.063-41.267,7.761
			c-6.59,2.586-11.854,6.729-17.562,11.387c-8.783,6.213-18.442,10.871-27.22,16.561c-13.609,9.316-29.413,25.361-44.343,25.877
			c7.902,1.039,15.367,6.213,20.637,13.974c8.34,11.911,15.367,16.045,28.97,17.6c4.833,0.516,16.249-1.032,20.638,2.071
			c3.513,2.587,2.632,4.658,1.318,10.347c-2.193,9.324-6.589,18.64-7.026,28.472c0.438-5.697,2.632-16.561,7.902-17.601
			c1.756,11.903,5.27,23.29,7.901,35.2c2.194,11.903,2.639,25.361,6.146,36.225c1.757-5.689,1.757-12.419,3.076-18.116
			c2.632,15.529,12.29,30.542,18.88,44.517c5.648,12.363,12.032,25.165,18.827,36.794c-11.448,12.872-40.803,6.159-55.268,6.159
			c-13.173,0-34.247-2.587-45.219,7.252c6.583,8.276,16.242,25.361,18.437,36.225c2.193,8.8-2.194,8.284-8.777,10.871
			c-5.708,2.071-10.097,3.103-16.249,3.103c-28.095,1.039-51.363-17.593-69.799-41.405c-6.59-8.277-12.735-16.562-19.317-25.361
			c-3.951-5.174-7.465-12.935-12.735-16.561c-5.271-3.618-12.728-3.103-18.436-3.103c-11.854,0-24.151,0-36.004-0.516
			c-19.317-0.524-39.51-2.071-59.266-0.524c-9.221,1.04-26.344,1.556-33.365,8.801c-3.951,4.142-5.708,9.315-10.978,12.941
			c-3.514,2.071-7.902,3.619-11.853,5.174c-3.951-12.418,3.076-27.947,8.784-38.303c6.145-10.348,22.387-26.908,17.561-39.851
			c-3.951-10.348-15.367-18.632-21.075-28.463c-4.521-7.792-12.808-21.609-9.374-31.105c4.408-12.2,10.925-24.806,16.706-36.208
			c3.699-7.299,7.763-14.333,11.449-21.648c2.685-5.322,8.28-13.958,7-20.062c-2.592-12.34-17.176-24.923-24.906-32.793
			C11.822,92.815-3.1,79.873,1.289,62.796c1.313-5.697,6.145-15.529,10.534-13.458c3.951,1.555,10.096,16.561,13.172,20.703
			c10.534,13.458,25.9,26.392,40.83,31.05c3.951,1.04,14.047,4.142,17.561,2.071c5.27-2.071,8.339-12.418,10.534-17.592
			c6.589-19.155,13.61-37.787,23.269-54.864c4.396-7.768,19.318-32.605,28.977-30.019c14.929,3.619,6.146,27.432,3.514,37.264
			c-2.632,10.348-5.708,22.774,0,32.605c7.902,12.942,19.755,10.871,30.289,6.213c18.443-7.769,40.393-8.8,60.147-10.871
			c14.492-1.032,28.102,1.555,41.712,5.697c16.679,5.174,35.121,2.587,52.238,0.516c12.297-1.555,24.15-3.626,36.44-4.658
			C377.094,66.931,382.358,64.868,388.066,67.97z"/>
	</g>
	<g>
		<path fill="none" stroke="#000000" d="M394.165,348.025c0.59,1.032,1.2,2.048,1.803,3.056c-0.438-1.031-1.313-2.07-1.756-3.103
			C394.198,347.994,394.178,348.009,394.165,348.025z"/>
		<path fill="none" stroke="#000000" d="M394.165,348.025c-11.448,12.872-40.803,6.159-55.268,6.159
			c-13.173,0-34.247-2.587-45.219,7.252c6.583,8.276,16.242,25.361,18.437,36.225c2.193,8.8-2.194,8.284-8.777,10.871
			c-5.708,2.071-10.097,3.103-16.249,3.103c-28.095,1.039-51.363-17.593-69.799-41.405c-6.59-8.277-12.735-16.562-19.317-25.361
			c-3.951-5.174-7.465-12.935-12.735-16.561c-5.271-3.618-12.728-3.103-18.436-3.103c-11.854,0-24.151,0-36.004-0.516
			c-19.317-0.524-39.51-2.071-59.266-0.524c-9.221,1.04-26.344,1.556-33.365,8.801c-3.951,4.142-5.708,9.315-10.978,12.941
			c-3.514,2.071-7.902,3.619-11.853,5.174c-3.951-12.418,3.076-27.947,8.784-38.303c6.145-10.348,22.387-26.908,17.561-39.851
			c-3.951-10.348-15.367-18.632-21.075-28.463c-4.521-7.792-12.808-21.609-9.374-31.105c4.408-12.2,10.925-24.806,16.706-36.208
			c3.699-7.299,7.763-14.333,11.449-21.648c2.685-5.322,8.28-13.958,7-20.062c-2.592-12.34-17.176-24.923-24.906-32.793
			C11.822,92.815-3.1,79.873,1.289,62.796c1.313-5.697,6.145-15.529,10.534-13.458c3.951,1.555,10.096,16.561,13.172,20.703
			c10.534,13.458,25.9,26.392,40.83,31.05c3.951,1.04,14.047,4.142,17.561,2.071c5.27-2.071,8.339-12.418,10.534-17.592
			c6.589-19.155,13.61-37.787,23.269-54.864c4.396-7.768,19.318-32.605,28.977-30.019c14.929,3.619,6.146,27.432,3.514,37.264
			c-2.632,10.348-5.708,22.774,0,32.605c7.902,12.942,19.755,10.871,30.289,6.213c18.443-7.769,40.393-8.8,60.147-10.871
			c14.492-1.032,28.102,1.555,41.712,5.697c16.679,5.174,35.121,2.587,52.238,0.516c12.297-1.555,24.15-3.626,36.44-4.658
			c6.59-0.524,11.854-2.587,17.562,0.516c8.34,4.658,26.345,22.258,9.221,28.987c-13.172,4.658-28.095,2.063-41.267,7.761
			c-6.59,2.586-11.854,6.729-17.562,11.387c-8.783,6.213-18.442,10.871-27.22,16.561c-13.609,9.316-29.413,25.361-44.343,25.877
			c7.902,1.039,15.367,6.213,20.637,13.974c8.34,11.911,15.367,16.045,28.97,17.6c4.833,0.516,16.249-1.032,20.638,2.071
			c3.513,2.587,2.632,4.658,1.318,10.347c-2.193,9.324-6.589,18.64-7.026,28.472c0.438-5.697,2.632-16.561,7.902-17.601
			c1.756,11.903,5.27,23.29,7.901,35.2c2.194,11.903,2.639,25.361,6.146,36.225c1.757-5.689,1.757-12.419,3.076-18.116
			c2.632,15.529,12.29,30.542,18.88,44.517C380.986,323.594,387.37,336.396,394.165,348.025z"/>
	</g>
</g>
</svg>
